<svg width="877" height="396" viewBox="0 0 877 396" fill="none" xmlns="http://www.w3.org/2000/svg">
<g filter="url(#filter0_i_43_812)">
<path fill-rule="evenodd" clip-rule="evenodd" d="M676.391 163.984L676.39 163.986C668.383 172.241 666.507 174.175 663.789 189.477C661.874 200.255 661.289 208.977 662.292 222.476C666.789 245.477 686.289 241.977 703.292 214.476C705.068 185.074 712.049 169.97 724.076 143.95L724.082 143.937C725.115 141.703 726.185 139.388 727.292 136.976C745.789 107.477 775.789 123.977 767.792 148.976L747.792 203.976C738.289 239.977 760.289 245.477 774.792 212.976C786.442 176.266 792.21 159.938 801.292 136.476C814.289 107.477 852.289 120.977 842.792 149.976C830.751 181.379 825.087 197.764 820.792 220.476C818.24 233.976 826.789 244.977 843.792 233.976C854.401 225.826 859.024 219.832 866.292 207.976C870.289 197.477 879.289 202.477 876.292 213.976C850.289 270.477 795.112 277.889 778.792 232.476C757.289 271.977 718.289 271.977 704.792 237.476C681.289 271.977 635.789 269.977 622.792 237.476C604.289 179.477 641.289 70.4762 682.792 16.9764C712.789 -17.5232 749.789 4.9767 743.792 44.9764C731.789 90.9767 714.534 119.667 679.292 160.976C678.244 162.075 677.28 163.068 676.391 163.984ZM136.292 149.476C116.792 136.976 124.292 116.976 141.792 118.976C171.792 119.976 177.292 74.6014 152.292 71.4764C140.292 69.9764 124.313 74.7025 109.792 85.9764C67.2891 118.976 46.2891 202.476 71.292 246.976C102.789 296.787 175.289 258.476 201.292 204.976C207.686 172.726 215.998 158.963 236.792 139.976C270.789 115.476 304.789 113.976 321.292 144.976C323.861 151.963 323.564 156.167 321.292 163.976C333.789 168.476 341.166 176.476 335.789 189.976C329.738 205.168 328.245 211.968 326.292 224.976C327.789 242.476 340.289 241.476 351.292 228.976C365.376 212.976 377.091 183.663 385.792 151.976C364.289 135.976 363.722 110.663 383.292 89.4764C390.789 82.4764 404.289 83.4764 409.792 90.4764C415.295 97.4764 412.789 121.976 405.292 138.976C418.523 141.495 426.329 135.514 440.292 122.976C455.789 106.976 482.289 121.976 476.292 144.476C464.357 170.245 458.735 184.33 451.792 208.476C441.289 249.476 467.289 245.976 490.292 212.476C493.985 166.479 502.789 140.476 519.792 96.9764C499.28 94.8368 488.815 93.3117 477.292 88.4764C465.289 82.4764 468.289 65.4764 483.792 67.4764L531.292 73.9764C542.837 50.2895 550.717 38.3218 570.792 22.9764C611.289 -1.02391 636.789 18.4763 631.292 54.9764C620.112 105.964 593.289 145.976 558.292 154.476C552.289 156.476 550.289 151.958 554.792 149.476C578.135 131.439 588.556 120.499 597.292 97.9764H572.292C552.255 142.816 535.792 186.976 535.792 216.476C537.289 232.976 550.292 232.976 550.292 214.476C556.789 174.476 614.789 183.976 597.292 228.976C572.292 276.476 510.289 276.976 492.792 230.476C463.289 275.476 401.289 276.976 406.792 211.476C409.14 191.323 412.433 180.05 420.792 159.976L399.792 157.976C389.289 188.476 379.289 213.476 364.792 234.976C338.289 271.976 298.289 272.476 284.792 234.976C259.789 273.976 215.289 271.476 202.792 231.476C170.389 280.03 133.789 300.976 79.7921 296.476C-33.2122 277.976 -20.7054 101.976 82.7921 52.4764C117.792 34.9764 161.792 35.4764 186.792 61.9764C201.292 79.4764 201.292 116.976 183.292 135.976C169.292 152.476 145.792 153.976 136.292 149.476ZM76.2891 395.977C141.289 310.477 233.789 302.977 368.292 338.476C500.289 378.477 597.292 378.977 631.292 309.976C637.091 296.045 634.789 281.269 628.792 274.976C624.713 270.695 621.235 270.328 611.792 273.476C558.292 301.477 476.292 293.977 374.289 279.977C250.289 268.977 113.289 295.693 76.2891 395.977ZM724.79 49.4768C708.586 93.4036 696.946 113.113 674.29 144.977C686.223 105.386 694.823 83.8057 712.29 45.9768C722.289 26.9767 729.289 30.4764 724.79 49.4768ZM584.29 75.9768C596.697 76.9175 601.22 78.0311 604.79 81.4768C608.985 71.22 610.707 64.1502 612.79 49.4768C613.789 38.9763 607.074 37.4761 600.29 46.9768C591.632 59.1031 587.749 65.6078 584.29 75.9768ZM313.29 164.477C308.289 150.477 297.961 149.509 283.29 155.977C266.289 167.477 253.233 187.477 249.291 210.977C245.431 233.982 256.789 247.477 278.79 221.977C283.934 215.265 285.99 208.489 288.372 200.635C289.601 196.582 290.918 192.242 292.79 187.477C298.513 173.648 302.709 168.364 313.29 164.477Z" fill="url(#paint0_linear_43_812)"/>
</g>
<defs>
<filter id="filter0_i_43_812" x="0" y="0.000129223" width="876.893" height="397.976" filterUnits="userSpaceOnUse" color-interpolation-filters="sRGB">
<feFlood flood-opacity="0" result="BackgroundImageFix"/>
<feBlend mode="normal" in="SourceGraphic" in2="BackgroundImageFix" result="shape"/>
<feColorMatrix in="SourceAlpha" type="matrix" values="0 0 0 0 0 0 0 0 0 0 0 0 0 0 0 0 0 0 127 0" result="hardAlpha"/>
<feOffset dy="2"/>
<feGaussianBlur stdDeviation="5"/>
<feComposite in2="hardAlpha" operator="arithmetic" k2="-1" k3="1"/>
<feColorMatrix type="matrix" values="0 0 0 0 0 0 0 0 0 0 0 0 0 0 0 0 0 0 0.12 0"/>
<feBlend mode="normal" in2="shape" result="effect1_innerShadow_43_812"/>
</filter>
<linearGradient id="paint0_linear_43_812" x1="438.446" y1="0.000129223" x2="438.446" y2="395.976" gradientUnits="userSpaceOnUse">
<stop stop-color="#FA9A08"/>
<stop offset="1" stop-color="#EB5D05"/>
</linearGradient>
</defs>
</svg>
